<svg width="850" height="931" viewBox="0 0 850 931" fill="none" xmlns="http://www.w3.org/2000/svg">
<rect x="11.5" y="388.5" width="823" height="385" rx="42.5" fill="#0B3D91" stroke="#0B3D91" stroke-width="15"/>
<path fill-rule="evenodd" clip-rule="evenodd" d="M755.843 174C773.052 174 789.053 182.851 798.198 197.429L842.355 267.813C847.351 275.776 850 284.986 850 294.386V320C850 347.614 827.614 370 800 370H50C22.3858 370 0 347.614 0 320V294.202C0 284.918 2.58543 275.817 7.46582 267.919L50.8447 197.717C59.9546 182.974 76.0496 174 93.3799 174H755.843ZM240 220C231.716 220 225 226.716 225 235C225 243.284 231.716 250 240 250H610C618.284 250 625 243.284 625 235C625 226.716 618.284 220 610 220H240Z" fill="#0B3D91"/>
<rect x="330.5" y="7.5" width="185" height="235" rx="42.5" fill="#0B3D91" stroke="white" stroke-width="15"/>
<path d="M163.697 785.476C157.363 785.519 155.128 781.316 158.704 776.088L334.891 518.516C338.467 513.287 345.069 512.607 349.636 516.997L439.098 602.972C443.664 607.362 450.593 606.925 454.573 601.996L527.456 511.736C531.435 506.807 530.436 499.894 525.224 496.295L456.804 449.04C451.592 445.44 452.465 441.914 458.756 441.166L610.555 423.088C616.845 422.34 624.017 426.43 626.576 432.224L687.99 571.321C690.549 577.116 688.077 579.427 682.469 576.481L619.639 543.488C614.031 540.542 606.165 542.073 602.07 546.904L454.782 720.672C450.687 725.505 443.33 726.248 438.349 722.335L369.09 667.902C364.11 663.988 357.115 665.013 353.468 670.191L279.383 775.357C275.735 780.535 267.643 784.768 261.309 784.812L163.697 785.476Z" fill="white"/>
<path d="M214 863.2C214 857.667 215.133 852.7 217.4 848.3C219.667 843.9 222.7 840.467 226.5 838C230.367 835.467 234.5 834.2 238.9 834.2C241.9 834.2 244.533 834.633 246.8 835.5C249.067 836.3 251.1 837.667 252.9 839.6V834.6H275V918H252.9V884.8C250.9 887.133 248.767 888.867 246.5 890C244.3 891.067 241.767 891.6 238.9 891.6C234.433 891.6 230.3 890.4 226.5 888C222.7 885.6 219.667 882.267 217.4 878C215.133 873.667 214 868.733 214 863.2ZM252.9 862.8C252.9 859.533 252.033 857.167 250.3 855.7C248.633 854.167 246.767 853.4 244.7 853.4C242.7 853.4 240.833 854.233 239.1 855.9C237.367 857.5 236.5 859.933 236.5 863.2C236.5 866.4 237.333 868.733 239 870.2C240.733 871.6 242.633 872.3 244.7 872.3C246.767 872.3 248.633 871.533 250.3 870C252.033 868.467 252.9 866.067 252.9 862.8ZM344.669 834.6V891H322.469V882.4C320.735 885.067 318.402 887.233 315.469 888.9C312.602 890.567 309.169 891.4 305.169 891.4C298.702 891.4 293.635 889.233 289.969 884.9C286.369 880.567 284.569 874.7 284.569 867.3V834.6H306.669V864.5C306.669 867.167 307.369 869.3 308.769 870.9C310.235 872.433 312.169 873.2 314.569 873.2C317.035 873.2 318.969 872.433 320.369 870.9C321.769 869.3 322.469 867.167 322.469 864.5V834.6H344.669ZM381.495 891.7C375.829 891.7 370.729 890.533 366.195 888.2C361.662 885.867 358.095 882.533 355.495 878.2C352.962 873.8 351.695 868.667 351.695 862.8C351.695 856.933 352.962 851.833 355.495 847.5C358.095 843.1 361.662 839.733 366.195 837.4C370.729 835.067 375.829 833.9 381.495 833.9C387.162 833.9 392.262 835.067 396.795 837.4C401.329 839.733 404.862 843.1 407.395 847.5C409.995 851.833 411.295 856.933 411.295 862.8C411.295 868.667 409.995 873.8 407.395 878.2C404.862 882.533 401.329 885.867 396.795 888.2C392.262 890.533 387.162 891.7 381.495 891.7ZM381.495 872.5C383.562 872.5 385.295 871.7 386.695 870.1C388.095 868.433 388.795 866 388.795 862.8C388.795 859.6 388.095 857.2 386.695 855.6C385.295 853.933 383.562 853.1 381.495 853.1C379.429 853.1 377.695 853.933 376.295 855.6C374.895 857.2 374.195 859.6 374.195 862.8C374.195 866 374.862 868.433 376.195 870.1C377.595 871.7 379.362 872.5 381.495 872.5ZM440.47 845C442.736 841.733 445.503 839.133 448.77 837.2C452.036 835.2 455.436 834.2 458.97 834.2V857.9H452.67C448.47 857.9 445.37 858.633 443.37 860.1C441.436 861.567 440.47 864.167 440.47 867.9V891H418.27V834.6H440.47V845ZM524.649 834.6V891H502.449V882.4C500.716 885.067 498.383 887.233 495.449 888.9C492.583 890.567 489.149 891.4 485.149 891.4C478.683 891.4 473.616 889.233 469.949 884.9C466.349 880.567 464.549 874.7 464.549 867.3V834.6H486.649V864.5C486.649 867.167 487.349 869.3 488.749 870.9C490.216 872.433 492.149 873.2 494.549 873.2C497.016 873.2 498.949 872.433 500.349 870.9C501.749 869.3 502.449 867.167 502.449 864.5V834.6H524.649ZM609.976 834.2C617.176 834.2 622.742 836.367 626.676 840.7C630.676 845.033 632.676 850.9 632.676 858.3V891H610.576V861.1C610.576 858.7 609.842 856.833 608.376 855.5C606.976 854.1 605.076 853.4 602.676 853.4C600.209 853.4 598.276 854.1 596.876 855.5C595.476 856.833 594.776 858.7 594.776 861.1V891H572.676V861.1C572.676 858.7 571.942 856.833 570.476 855.5C569.076 854.1 567.176 853.4 564.776 853.4C562.309 853.4 560.376 854.1 558.976 855.5C557.576 856.833 556.876 858.7 556.876 861.1V891H534.676V834.6H556.876V842.2C558.476 839.8 560.642 837.867 563.376 836.4C566.176 834.933 569.442 834.2 573.176 834.2C577.242 834.2 580.842 835.1 583.976 836.9C587.109 838.633 589.609 841.1 591.476 844.3C593.542 841.367 596.176 838.967 599.376 837.1C602.576 835.167 606.109 834.2 609.976 834.2Z" fill="#0B3D91"/>
</svg>
